<svg version="1.1" xmlns="http://www.w3.org/2000/svg" viewBox="0 0 80.79998779296875 57.11997985839844" width="242.39996337890625" height="171.3599395751953" filter="invert(93%) hue-rotate(180deg)">
  <!-- svg-source:excalidraw -->
  
  <defs>
    <style class="style-fonts">
      @font-face {
        font-family: "Virgil";
        src: url("https://excalidraw.com/Virgil.woff2");
      }
      @font-face {
        font-family: "Cascadia";
        src: url("https://excalidraw.com/Cascadia.woff2");
      }
    </style>
  </defs>
  <g stroke-linecap="round"><g transform="translate(10.63995361328125 10) rotate(0 30.08001708984375 0)"><path d="M0 0 C10.03 0, 50.13 0, 60.16 0 M0 0 C10.03 0, 50.13 0, 60.16 0" stroke="#000000" stroke-width="4" fill="none"></path></g></g><mask></mask><g stroke-linecap="round"><g transform="translate(70.79998779296875 10) rotate(0 -17.600006103515625 18.55998992919922)"><path d="M0 0 C-5.87 6.19, -29.33 30.93, -35.2 37.12 M0 0 C-5.87 6.19, -29.33 30.93, -35.2 37.12" stroke="#000000" stroke-width="4" fill="none"></path></g></g><mask></mask><g stroke-linecap="round"><g transform="translate(35.5999755859375 47.11997985839844) rotate(0 -12.79998779296875 -17.91999053955078)"><path d="M0 0 C-4.27 -5.97, -21.33 -29.87, -25.6 -35.84 M0 0 C-4.27 -5.97, -21.33 -29.87, -25.6 -35.84" stroke="#000000" stroke-width="4" fill="none"></path></g></g><mask></mask><g transform="translate(35.947759158846566 23.110030320102055) rotate(0 0 1.7772771064245632)" stroke="none"><path fill="#000000" d="M 9.09,0 Q 9.09,0 9.29,1.77 9.49,3.55 9.25,5.07 9.00,6.58 8.28,7.94 7.56,9.30 6.44,10.36 5.33,11.41 3.93,12.06 2.54,12.70 1.01,12.87 -0.51,13.03 -2.01,12.70 -3.51,12.37 -4.83,11.58 -6.15,10.79 -7.14,9.62 -8.13,8.45 -8.70,7.02 -9.27,5.59 -9.36,4.06 -9.44,2.52 -9.03,1.04 -8.62,-0.43 -7.75,-1.70 -6.89,-2.97 -5.67,-3.90 -4.44,-4.83 -2.99,-5.32 -1.53,-5.81 0.00,-5.81 1.53,-5.81 2.99,-5.32 4.45,-4.83 5.67,-3.90 6.89,-2.97 7.75,-1.70 8.62,-0.43 9.03,1.04 9.44,2.52 9.36,4.06 9.27,5.59 8.70,7.02 8.13,8.45 7.14,9.62 6.14,10.79 4.83,11.58 3.51,12.37 2.01,12.70 0.51,13.03 -1.01,12.87 -2.54,12.70 -3.93,12.06 -5.33,11.41 -6.44,10.35 -7.56,9.30 -8.28,7.94 -9.00,6.58 -9.25,5.06 -9.49,3.55 -9.49,3.55 -9.49,3.55 -9.29,1.77 -9.09,0 -8.96,-1.08 -8.82,-2.17 -8.44,-3.20 -8.05,-4.22 -7.42,-5.12 -6.80,-6.03 -5.98,-6.75 -5.16,-7.48 -4.19,-7.99 -3.22,-8.50 -2.16,-8.76 -1.09,-9.02 0.00,-9.02 1.09,-9.02 2.16,-8.76 3.22,-8.50 4.19,-7.99 5.16,-7.48 5.98,-6.75 6.80,-6.02 7.43,-5.12 8.05,-4.22 8.44,-3.20 8.82,-2.17 8.96,-1.08 9.09,0.00 9.09,0.00 L 9.09,0 Z"></path></g><g transform="translate(48.49326221057197 19.13727771677611) rotate(0 0.00004999999998744897 0.00005000000000165983)" stroke="none"><path fill="#000000" d="M 6.28,-6.28 Q 6.28,-6.28 7.11,-5.11 7.95,-3.94 8.37,-2.57 8.80,-1.19 8.76,0.23 8.72,1.67 8.22,3.02 7.73,4.37 6.83,5.49 5.93,6.61 4.72,7.38 3.50,8.15 2.11,8.50 0.72,8.85 -0.71,8.73 -2.14,8.61 -3.46,8.05 -4.78,7.48 -5.85,6.52 -6.92,5.56 -7.63,4.31 -8.33,3.06 -8.60,1.65 -8.87,0.23 -8.68,-1.18 -8.49,-2.60 -7.85,-3.89 -7.21,-5.18 -6.19,-6.19 -5.18,-7.21 -3.89,-7.85 -2.60,-8.49 -1.18,-8.68 0.24,-8.87 1.65,-8.60 3.06,-8.33 4.31,-7.62 5.56,-6.92 6.52,-5.85 7.48,-4.78 8.05,-3.46 8.62,-2.14 8.73,-0.70 8.85,0.72 8.50,2.11 8.15,3.51 7.38,4.72 6.61,5.93 5.49,6.83 4.36,7.73 3.02,8.22 1.67,8.72 0.23,8.76 -1.20,8.80 -2.57,8.37 -3.94,7.95 -5.11,7.11 -6.28,6.27 -6.28,6.28 -6.28,6.28 -6.94,5.43 -7.60,4.59 -8.04,3.61 -8.48,2.64 -8.67,1.58 -8.86,0.53 -8.80,-0.53 -8.73,-1.60 -8.41,-2.62 -8.09,-3.64 -7.54,-4.56 -6.99,-5.47 -6.23,-6.23 -5.47,-6.99 -4.56,-7.54 -3.64,-8.10 -2.62,-8.41 -1.60,-8.73 -0.53,-8.80 0.53,-8.86 1.59,-8.67 2.64,-8.48 3.61,-8.04 4.59,-7.60 5.43,-6.94 6.28,-6.28 6.28,-6.28 L 6.28,-6.28 Z"></path></g><g transform="translate(56.64785414961284 22.273663449987026) rotate(0 4.286382701909474 -4.495479404577949)" stroke="none"><path fill="#000000" d="M -2.31,-0.96 Q -2.31,-0.96 -2.05,-1.70 -1.80,-2.44 -1.43,-3.66 -1.06,-4.88 -0.43,-5.86 0.20,-6.84 1.24,-7.54 2.28,-8.24 3.16,-9.02 4.05,-9.81 5.16,-10.57 6.27,-11.34 6.70,-11.64 7.14,-11.95 7.65,-12.10 8.16,-12.25 8.69,-12.23 9.22,-12.21 9.72,-12.02 10.22,-11.83 10.63,-11.50 11.04,-11.16 11.32,-10.71 11.60,-10.25 11.73,-9.74 11.85,-9.22 11.80,-8.69 11.75,-8.16 11.54,-7.67 11.32,-7.19 10.96,-6.79 10.60,-6.40 10.14,-6.14 9.67,-5.89 9.15,-5.79 8.62,-5.70 8.10,-5.77 7.57,-5.85 7.10,-6.09 6.62,-6.33 6.25,-6.71 5.88,-7.09 5.64,-7.57 5.41,-8.05 5.35,-8.58 5.28,-9.11 5.39,-9.63 5.49,-10.15 5.76,-10.61 6.03,-11.07 6.43,-11.42 6.83,-11.78 7.32,-11.98 7.81,-12.19 8.34,-12.22 8.87,-12.26 9.38,-12.13 9.90,-11.99 10.34,-11.70 10.79,-11.41 11.12,-10.99 11.45,-10.57 11.63,-10.07 11.80,-9.57 11.81,-9.04 11.82,-8.51 11.66,-8.00 11.50,-7.49 11.18,-7.06 10.87,-6.64 10.87,-6.64 10.87,-6.64 8.56,-5.33 6.26,-4.03 5.09,-3.40 3.93,-2.77 3.47,-1.60 3.00,-0.44 2.65,0.26 2.31,0.96 2.16,1.22 2.01,1.49 1.80,1.70 1.60,1.92 1.34,2.09 1.09,2.25 0.80,2.35 0.52,2.45 0.21,2.47 -0.08,2.50 -0.37,2.45 -0.67,2.41 -0.95,2.29 -1.23,2.18 -1.47,2.00 -1.72,1.82 -1.91,1.58 -2.10,1.35 -2.24,1.08 -2.37,0.81 -2.43,0.51 -2.49,0.22 -2.48,-0.08 -2.47,-0.38 -2.39,-0.67 -2.31,-0.96 -2.31,-0.96 L -2.31,-0.96 Z"></path></g><g transform="translate(65.22061955343179 13.282704640831128) rotate(0 0.00004999999998744897 0.00005000000000165983)" stroke="none"><path fill="#000000" d="M 1.57,-1.57 Q 1.57,-1.57 1.77,-1.27 1.98,-0.98 2.09,-0.64 2.20,-0.29 2.19,0.05 2.18,0.41 2.05,0.75 1.93,1.09 1.70,1.37 1.48,1.65 1.18,1.84 0.87,2.04 0.52,2.12 0.18,2.21 -0.17,2.18 -0.53,2.15 -0.86,2.01 -1.19,1.87 -1.46,1.63 -1.73,1.39 -1.90,1.07 -2.08,0.76 -2.15,0.41 -2.21,0.05 -2.17,-0.29 -2.12,-0.65 -1.96,-0.97 -1.80,-1.29 -1.54,-1.54 -1.29,-1.80 -0.97,-1.96 -0.65,-2.12 -0.29,-2.17 0.06,-2.21 0.41,-2.15 0.76,-2.08 1.07,-1.90 1.39,-1.73 1.63,-1.46 1.87,-1.19 2.01,-0.86 2.15,-0.53 2.18,-0.17 2.21,0.18 2.12,0.52 2.03,0.87 1.84,1.18 1.65,1.48 1.37,1.70 1.09,1.93 0.75,2.05 0.41,2.18 0.05,2.19 -0.30,2.20 -0.64,2.09 -0.98,1.98 -1.27,1.77 -1.57,1.56 -1.57,1.57 -1.57,1.57 -1.73,1.35 -1.90,1.14 -2.01,0.90 -2.12,0.66 -2.16,0.39 -2.21,0.13 -2.20,-0.13 -2.18,-0.40 -2.10,-0.65 -2.02,-0.91 -1.88,-1.14 -1.74,-1.36 -1.55,-1.55 -1.36,-1.74 -1.14,-1.88 -0.91,-2.02 -0.65,-2.10 -0.40,-2.18 -0.13,-2.20 0.13,-2.21 0.39,-2.16 0.66,-2.12 0.90,-2.01 1.14,-1.90 1.35,-1.73 1.57,-1.57 1.57,-1.57 L 1.57,-1.57 Z"></path></g><g transform="translate(57.06604755494993 14.11907649608591) rotate(0 0.00004999999998744897 0.00005000000000165983)" stroke="none"><path fill="#000000" d="M 1.57,-1.57 Q 1.57,-1.57 1.77,-1.27 1.98,-0.98 2.09,-0.64 2.20,-0.29 2.19,0.05 2.18,0.41 2.05,0.75 1.93,1.09 1.70,1.37 1.48,1.65 1.18,1.84 0.87,2.04 0.52,2.12 0.18,2.21 -0.17,2.18 -0.53,2.15 -0.86,2.01 -1.19,1.87 -1.46,1.63 -1.73,1.39 -1.90,1.07 -2.08,0.76 -2.15,0.41 -2.21,0.05 -2.17,-0.29 -2.12,-0.65 -1.96,-0.97 -1.80,-1.29 -1.54,-1.54 -1.29,-1.80 -0.97,-1.96 -0.65,-2.12 -0.29,-2.17 0.06,-2.21 0.41,-2.15 0.76,-2.08 1.07,-1.90 1.39,-1.73 1.63,-1.46 1.87,-1.19 2.01,-0.86 2.15,-0.53 2.18,-0.17 2.21,0.18 2.12,0.52 2.03,0.87 1.84,1.18 1.65,1.48 1.37,1.70 1.09,1.93 0.75,2.05 0.41,2.18 0.05,2.19 -0.30,2.20 -0.64,2.09 -0.98,1.98 -1.27,1.77 -1.57,1.56 -1.57,1.57 -1.57,1.57 -1.73,1.35 -1.90,1.14 -2.01,0.90 -2.12,0.66 -2.16,0.39 -2.21,0.13 -2.20,-0.13 -2.18,-0.40 -2.10,-0.65 -2.02,-0.91 -1.88,-1.14 -1.74,-1.36 -1.55,-1.55 -1.36,-1.74 -1.14,-1.88 -0.91,-2.02 -0.65,-2.10 -0.40,-2.18 -0.13,-2.20 0.13,-2.21 0.39,-2.16 0.66,-2.12 0.90,-2.01 1.14,-1.90 1.35,-1.73 1.57,-1.57 1.57,-1.57 L 1.57,-1.57 Z"></path></g><g transform="translate(48.70235891324046 13.282704640831128) rotate(0 5.7500297097505495 -0.10454585876438216)" stroke="none"><path fill="#000000" d="M -0.30,-2.42 Q -0.30,-2.42 0.17,-2.52 0.64,-2.63 1.76,-2.79 2.88,-2.95 3.97,-3.06 5.07,-3.16 6.21,-3.25 7.35,-3.34 9.42,-3.38 11.50,-3.42 12.01,-3.34 12.52,-3.25 12.98,-3.01 13.44,-2.77 13.80,-2.39 14.16,-2.01 14.38,-1.54 14.60,-1.06 14.65,-0.55 14.71,-0.03 14.60,0.47 14.48,0.98 14.22,1.42 13.95,1.87 13.55,2.21 13.15,2.54 12.67,2.74 12.19,2.93 11.67,2.96 11.15,2.99 10.65,2.85 10.14,2.71 9.71,2.41 9.28,2.12 8.97,1.71 8.65,1.29 8.49,0.80 8.32,0.31 8.32,-0.20 8.32,-0.73 8.49,-1.22 8.65,-1.71 8.97,-2.13 9.28,-2.54 9.71,-2.83 10.14,-3.13 10.65,-3.26 11.15,-3.40 11.67,-3.38 12.19,-3.35 12.67,-3.15 13.15,-2.96 13.55,-2.62 13.95,-2.29 14.22,-1.84 14.49,-1.39 14.60,-0.89 14.71,-0.38 14.65,0.13 14.60,0.65 14.38,1.12 14.16,1.59 13.80,1.97 13.44,2.35 12.98,2.59 12.52,2.84 12.01,2.92 11.49,3.00 11.49,3.00 11.50,3.00 9.85,2.99 8.20,2.98 7.05,2.90 5.90,2.81 4.75,2.71 3.60,2.61 2.43,2.50 1.27,2.39 0.78,2.40 0.30,2.42 0.00,2.42 -0.28,2.42 -0.57,2.35 -0.85,2.28 -1.11,2.15 -1.38,2.01 -1.60,1.82 -1.82,1.62 -1.99,1.38 -2.15,1.14 -2.26,0.86 -2.36,0.59 -2.40,0.30 -2.44,0.00 -2.40,-0.28 -2.37,-0.57 -2.26,-0.85 -2.16,-1.12 -1.99,-1.37 -1.83,-1.61 -1.61,-1.80 -1.39,-2.00 -1.13,-2.14 -0.87,-2.28 -0.58,-2.35 -0.30,-2.42 -0.30,-2.42 L -0.30,-2.42 Z"></path></g><g transform="translate(43.89325439521883 26.66458453295118) rotate(0 2.195465526621888 4.495479404577964)" stroke="none"><path fill="#000000" d="M 2.51,0 Q 2.51,0 2.56,0.60 2.61,1.20 2.64,2.75 2.66,4.29 1.06,3.77 -0.53,3.24 0.14,2.12 0.82,1.01 1.61,0.27 2.39,-0.45 3.12,-1.55 3.85,-2.65 4.66,-3.62 5.46,-4.60 6.35,-5.33 7.24,-6.06 10.26,-6.83 13.28,-7.60 11.35,-7.94 9.42,-8.27 9.83,-8.44 10.24,-8.61 10.68,-8.68 11.12,-8.75 11.56,-8.71 12.00,-8.67 12.42,-8.53 12.84,-8.38 13.21,-8.14 13.58,-7.90 13.89,-7.58 14.19,-7.26 14.41,-6.87 14.63,-6.49 14.75,-6.06 14.87,-5.63 14.88,-5.19 14.90,-4.75 14.81,-4.32 14.71,-3.88 14.52,-3.48 14.33,-3.09 14.04,-2.74 13.76,-2.40 13.41,-2.14 13.05,-1.88 12.16,-1.13 11.26,-0.38 10.39,0.52 9.51,1.43 8.70,2.13 7.90,2.84 6.76,3.76 5.63,4.68 6.46,3.91 7.28,3.14 6.54,4.09 5.80,5.04 4.60,6.11 3.41,7.19 2.43,7.98 1.44,8.77 0.39,9.64 -0.65,10.51 -1.50,11.78 -2.34,13.05 -2.62,14.27 -2.89,15.49 -3.29,15.90 -3.68,16.32 -4.00,16.66 -4.33,17.00 -4.72,17.26 -5.12,17.51 -5.57,17.66 -6.01,17.81 -6.48,17.85 -6.95,17.90 -7.42,17.82 -7.88,17.75 -8.32,17.57 -8.75,17.39 -9.13,17.11 -9.51,16.82 -9.81,16.46 -10.11,16.10 -10.31,15.67 -10.52,15.25 -10.61,14.79 -10.71,14.33 -10.70,13.86 -10.68,13.39 -10.55,12.93 -10.42,12.48 -10.19,12.07 -9.96,11.66 -9.06,10.61 -8.17,9.56 -6.92,8.36 -5.66,7.17 -4.94,6.17 -4.22,5.18 -3.43,4.40 -2.65,3.63 -1.69,2.67 -0.74,1.72 0.05,0.79 0.85,-0.13 1.36,-0.56 1.87,-0.99 2.22,-1.52 2.57,-2.05 3.08,-2.43 3.58,-2.82 4.18,-3.02 4.78,-3.23 5.41,-3.23 6.04,-3.24 6.65,-3.04 7.25,-2.84 7.75,-2.46 8.26,-2.08 8.62,-1.55 8.98,-1.03 9.15,-0.42 9.32,0.18 9.29,0.81 9.26,1.44 9.03,2.03 8.80,2.62 8.39,3.11 7.98,3.59 7.44,3.92 6.90,4.25 6.28,4.39 5.66,4.53 5.03,4.47 4.40,4.40 3.83,4.14 3.25,3.88 2.79,3.44 2.33,3.01 2.03,2.45 1.73,1.89 1.62,1.27 1.51,0.64 1.61,0.02 1.71,-0.60 2.01,-1.16 2.30,-1.72 2.76,-2.16 3.22,-2.60 3.79,-2.87 4.36,-3.14 4.99,-3.21 5.62,-3.28 6.24,-3.15 6.86,-3.01 7.41,-2.69 7.95,-2.37 8.36,-1.89 8.78,-1.40 9.01,-0.82 9.25,-0.23 9.29,0.39 9.33,1.03 9.16,1.64 8.99,2.25 8.99,2.25 8.99,2.25 7.61,3.89 6.23,5.54 5.35,6.32 4.47,7.10 3.75,8.02 3.03,8.93 2.15,9.64 1.27,10.36 0.52,11.25 -0.22,12.15 -1.08,13.16 -1.94,14.17 -2.81,15.24 -3.68,16.32 -4.00,16.66 -4.33,17.00 -4.72,17.25 -5.12,17.51 -5.57,17.66 -6.01,17.81 -6.48,17.85 -6.95,17.90 -7.42,17.82 -7.88,17.75 -8.32,17.57 -8.75,17.39 -9.13,17.11 -9.51,16.83 -9.81,16.46 -10.11,16.10 -10.31,15.68 -10.52,15.25 -10.61,14.79 -10.71,14.33 -10.70,13.86 -10.68,13.39 -10.55,12.93 -10.42,12.48 -10.19,12.07 -9.96,11.66 -9.37,11.08 -8.79,10.51 -9.37,11.71 -9.96,12.92 -9.75,11.78 -9.54,10.63 -9.02,9.68 -8.50,8.73 -7.70,7.75 -6.89,6.78 -5.97,5.86 -5.04,4.93 -3.98,3.71 -2.91,2.48 -1.82,1.87 -0.73,1.25 0.41,-0.04 1.56,-1.35 2.87,-2.50 4.18,-3.66 5.25,-4.47 6.32,-5.27 7.73,-6.53 9.15,-7.79 8.32,-6.93 7.50,-6.08 8.46,-7.17 9.42,-8.27 9.83,-8.44 10.24,-8.61 10.68,-8.68 11.12,-8.75 11.56,-8.71 12.00,-8.67 12.42,-8.53 12.84,-8.38 13.21,-8.14 13.58,-7.90 13.89,-7.58 14.19,-7.26 14.41,-6.87 14.63,-6.49 14.75,-6.06 14.87,-5.64 14.88,-5.19 14.90,-4.75 14.81,-4.32 14.71,-3.88 14.52,-3.48 14.33,-3.09 14.04,-2.74 13.76,-2.40 13.41,-2.14 13.05,-1.88 11.05,-2.29 9.06,-2.71 11.39,-2.75 13.72,-2.79 12.80,-1.77 11.88,-0.75 11.02,-0.06 10.16,0.61 9.34,1.45 8.51,2.28 7.77,3.33 7.02,4.37 6.15,5.05 5.27,5.73 4.35,6.37 3.43,7.00 2.46,7.61 1.48,8.23 0.33,8.28 -0.81,8.32 -2.02,6.15 -3.23,3.98 -2.92,2.59 -2.61,1.20 -2.56,0.60 -2.51,0 -2.48,-0.30 -2.44,-0.60 -2.33,-0.88 -2.22,-1.17 -2.05,-1.42 -1.88,-1.66 -1.65,-1.87 -1.43,-2.07 -1.16,-2.21 -0.89,-2.35 -0.59,-2.42 -0.30,-2.49 0.00,-2.49 0.30,-2.49 0.59,-2.42 0.89,-2.35 1.16,-2.21 1.43,-2.07 1.65,-1.87 1.88,-1.66 2.05,-1.41 2.22,-1.17 2.33,-0.88 2.44,-0.60 2.48,-0.30 2.51,0.00 2.51,0.00 L 2.51,0 Z"></path></g><g transform="translate(25.493163312129127 19.13727771677611) rotate(0 9.513680625268137 -1.9863713165232042)" stroke="none"><path fill="#000000" d="M -1.76,-1.76 Q -1.76,-1.76 -1.31,-2.28 -0.87,-2.79 -0.05,-3.53 0.75,-4.28 1.78,-4.77 2.80,-5.26 3.82,-5.67 4.84,-6.08 6.05,-6.30 7.25,-6.52 8.33,-6.57 9.40,-6.63 10.48,-6.68 11.55,-6.73 12.70,-6.77 13.85,-6.81 14.93,-6.84 16.00,-6.87 17.13,-7.11 18.26,-7.34 18.59,-7.42 18.92,-7.49 19.36,-7.44 19.79,-7.40 20.20,-7.24 20.61,-7.09 20.97,-6.85 21.33,-6.61 21.62,-6.28 21.91,-5.96 22.12,-5.57 22.32,-5.19 22.43,-4.77 22.54,-4.35 22.54,-3.91 22.55,-3.48 22.45,-3.05 22.35,-2.63 22.15,-2.24 21.95,-1.85 21.66,-1.52 21.38,-1.19 21.02,-0.94 20.66,-0.69 20.26,-0.54 19.85,-0.38 19.42,-0.32 18.99,-0.26 16.71,-0.29 14.42,-0.32 13.84,-0.41 13.26,-0.51 12.73,-0.78 12.21,-1.06 11.81,-1.49 11.40,-1.92 11.15,-2.45 10.90,-2.99 10.84,-3.58 10.78,-4.17 10.90,-4.74 11.03,-5.32 11.34,-5.83 11.64,-6.33 12.09,-6.71 12.54,-7.10 13.09,-7.32 13.64,-7.53 14.23,-7.57 14.82,-7.60 15.39,-7.44 15.96,-7.28 16.44,-6.95 16.93,-6.62 17.29,-6.15 17.65,-5.68 17.84,-5.12 18.03,-4.56 18.03,-3.97 18.03,-3.38 17.84,-2.82 17.65,-2.26 17.29,-1.79 16.93,-1.32 16.44,-0.99 15.95,-0.65 15.39,-0.50 14.82,-0.34 14.23,-0.37 13.64,-0.40 13.09,-0.62 12.54,-0.84 12.09,-1.22 11.64,-1.60 11.33,-2.11 11.03,-2.62 10.90,-3.19 10.78,-3.77 10.84,-4.36 10.90,-4.95 11.15,-5.48 11.40,-6.02 11.81,-6.45 12.21,-6.88 12.74,-7.15 13.26,-7.43 13.84,-7.52 14.42,-7.62 14.42,-7.62 14.42,-7.62 16.67,-7.56 18.92,-7.49 19.35,-7.44 19.79,-7.40 20.20,-7.24 20.61,-7.09 20.97,-6.85 21.33,-6.61 21.62,-6.28 21.91,-5.96 22.12,-5.58 22.32,-5.19 22.43,-4.77 22.54,-4.35 22.54,-3.91 22.55,-3.48 22.45,-3.05 22.35,-2.63 22.15,-2.24 21.95,-1.85 21.66,-1.52 21.38,-1.20 21.02,-0.94 20.66,-0.69 20.26,-0.54 19.85,-0.38 19.42,-0.32 18.99,-0.26 18.52,-0.18 18.05,-0.10 16.30,0.01 14.54,0.14 13.40,0.10 12.26,0.07 11.07,0.01 9.88,-0.03 8.59,-0.10 7.29,-0.16 6.19,-0.15 5.09,-0.14 3.94,0.36 2.79,0.87 2.27,1.31 1.76,1.76 1.52,1.95 1.29,2.13 1.01,2.25 0.74,2.38 0.44,2.43 0.15,2.49 -0.14,2.47 -0.44,2.45 -0.73,2.36 -1.02,2.27 -1.28,2.11 -1.53,1.96 -1.75,1.75 -1.96,1.53 -2.12,1.28 -2.27,1.02 -2.36,0.73 -2.45,0.44 -2.47,0.14 -2.49,-0.15 -2.43,-0.44 -2.38,-0.74 -2.25,-1.01 -2.13,-1.29 -1.94,-1.52 -1.76,-1.76 -1.76,-1.76 L -1.76,-1.76 Z"></path></g><g transform="translate(11.27490657961448 11.609968408031165) rotate(0 0.00004999999998744897 0.00005000000000165983)" stroke="none"><path fill="#000000" d="M 1.57,-1.57 Q 1.57,-1.57 1.77,-1.27 1.98,-0.98 2.09,-0.64 2.20,-0.29 2.19,0.05 2.18,0.41 2.05,0.75 1.93,1.09 1.70,1.37 1.48,1.65 1.18,1.84 0.87,2.04 0.52,2.12 0.18,2.21 -0.17,2.18 -0.53,2.15 -0.86,2.01 -1.19,1.87 -1.46,1.63 -1.73,1.39 -1.90,1.07 -2.08,0.76 -2.15,0.41 -2.21,0.05 -2.17,-0.29 -2.12,-0.65 -1.96,-0.97 -1.80,-1.29 -1.54,-1.54 -1.29,-1.80 -0.97,-1.96 -0.65,-2.12 -0.29,-2.17 0.06,-2.21 0.41,-2.15 0.76,-2.08 1.07,-1.90 1.39,-1.73 1.63,-1.46 1.87,-1.19 2.01,-0.86 2.15,-0.53 2.18,-0.17 2.21,0.18 2.12,0.52 2.03,0.87 1.84,1.18 1.65,1.48 1.37,1.70 1.09,1.93 0.75,2.05 0.41,2.18 0.05,2.19 -0.30,2.20 -0.64,2.09 -0.98,1.98 -1.27,1.77 -1.57,1.56 -1.57,1.57 -1.57,1.57 -1.73,1.35 -1.90,1.14 -2.01,0.90 -2.12,0.66 -2.16,0.39 -2.21,0.13 -2.20,-0.13 -2.18,-0.40 -2.10,-0.65 -2.02,-0.91 -1.88,-1.14 -1.74,-1.36 -1.55,-1.55 -1.36,-1.74 -1.14,-1.88 -0.91,-2.02 -0.65,-2.10 -0.40,-2.18 -0.13,-2.20 0.13,-2.21 0.39,-2.16 0.66,-2.12 0.90,-2.01 1.14,-1.90 1.35,-1.73 1.57,-1.57 1.57,-1.57 L 1.57,-1.57 Z"></path></g><g transform="translate(10.43853970949931 11.191787465543541) rotate(0 0.00004999999998744897 0.00005000000000165983)" stroke="none"><path fill="#000000" d="M 1.57,-1.57 Q 1.57,-1.57 1.77,-1.27 1.98,-0.98 2.09,-0.64 2.20,-0.29 2.19,0.05 2.18,0.41 2.05,0.75 1.93,1.09 1.70,1.37 1.48,1.65 1.18,1.84 0.87,2.04 0.52,2.12 0.18,2.21 -0.17,2.18 -0.53,2.15 -0.86,2.01 -1.19,1.87 -1.46,1.63 -1.73,1.39 -1.90,1.07 -2.08,0.76 -2.15,0.41 -2.21,0.05 -2.17,-0.29 -2.12,-0.65 -1.96,-0.97 -1.80,-1.29 -1.54,-1.54 -1.29,-1.80 -0.97,-1.96 -0.65,-2.12 -0.29,-2.17 0.06,-2.21 0.41,-2.15 0.76,-2.08 1.07,-1.90 1.39,-1.73 1.63,-1.46 1.87,-1.19 2.01,-0.86 2.15,-0.53 2.18,-0.17 2.21,0.18 2.12,0.52 2.03,0.87 1.84,1.18 1.65,1.48 1.37,1.70 1.09,1.93 0.75,2.05 0.41,2.18 0.05,2.19 -0.30,2.20 -0.64,2.09 -0.98,1.98 -1.27,1.77 -1.57,1.56 -1.57,1.57 -1.57,1.57 -1.73,1.35 -1.90,1.14 -2.01,0.90 -2.12,0.66 -2.16,0.39 -2.21,0.13 -2.20,-0.13 -2.18,-0.40 -2.10,-0.65 -2.02,-0.91 -1.88,-1.14 -1.74,-1.36 -1.55,-1.55 -1.36,-1.74 -1.14,-1.88 -0.91,-2.02 -0.65,-2.10 -0.40,-2.18 -0.13,-2.20 0.13,-2.21 0.39,-2.16 0.66,-2.12 0.90,-2.01 1.14,-1.90 1.35,-1.73 1.57,-1.57 1.57,-1.57 L 1.57,-1.57 Z"></path></g><g transform="translate(19.220401815986747 14.11907649608591) rotate(0 6.168213144808078 4.2863851944793225)" stroke="none"><path fill="#000000" d="M 0,-2.53 Q 0,-2.53 0.54,-2.58 1.08,-2.62 2.47,-2.75 3.86,-2.87 4.98,-2.96 6.10,-3.05 7.30,-3.12 8.49,-3.20 9.60,-3.16 10.71,-3.12 11.86,-3.17 13.01,-3.23 14.17,-3.24 15.34,-3.25 16.69,-0.67 18.04,1.89 16.81,3.16 15.57,4.43 14.36,4.71 13.15,4.99 12.22,5.58 11.30,6.17 9.98,6.86 8.66,7.55 7.57,6.38 6.47,5.21 4.74,6.21 3.02,7.21 3.16,8.36 3.30,9.52 2.36,8.89 1.42,8.27 0.02,7.92 -1.37,7.56 -2.22,6.26 -3.08,4.96 -3.20,4.62 -3.31,4.28 -3.93,4.15 -4.54,4.02 -5.08,3.70 -5.62,3.38 -6.03,2.91 -6.44,2.43 -6.67,1.85 -6.91,1.27 -6.95,0.65 -6.99,0.02 -6.82,-0.58 -6.66,-1.18 -6.31,-1.70 -5.96,-2.22 -5.47,-2.61 -4.97,-2.99 -4.38,-3.19 -3.78,-3.40 -3.16,-3.40 -2.53,-3.40 -1.93,-3.21 -1.34,-3.01 -0.84,-2.64 -0.34,-2.26 0.01,-1.74 0.36,-1.23 0.54,-0.62 0.71,-0.02 0.68,0.59 0.65,1.22 0.42,1.81 0.19,2.39 -0.20,2.87 -0.60,3.35 -1.14,3.68 -1.67,4.00 -2.28,4.14 -2.90,4.28 -3.52,4.22 -4.14,4.15 -4.71,3.89 -5.28,3.63 -5.74,3.21 -6.20,2.78 -6.50,2.23 -6.80,1.67 -6.90,1.06 -7.01,0.44 -6.91,-0.17 -6.81,-0.79 -6.52,-1.35 -6.23,-1.90 -5.78,-2.34 -5.33,-2.77 -4.76,-3.04 -4.19,-3.30 -3.57,-3.38 -2.95,-3.45 -2.95,-3.45 -2.95,-3.45 0.08,-1.56 3.11,0.32 3.58,1.53 4.05,2.74 3.34,1.72 2.64,0.70 3.38,1.64 4.12,2.57 3.17,1.70 2.23,0.83 3.30,1.26 4.37,1.69 5.66,2.17 6.94,2.65 7.76,3.34 8.57,4.02 9.22,5.60 9.86,7.17 9.44,8.35 9.03,9.52 7.25,10.53 5.47,11.53 3.77,9.40 2.07,7.26 2.20,6.10 2.33,4.93 2.97,3.90 3.61,2.87 4.62,2.06 5.64,1.24 7.01,0.34 8.39,-0.56 9.36,-1.07 10.34,-1.57 11.55,-1.23 12.77,-0.89 12.89,1.37 13.01,3.65 11.86,3.59 10.71,3.54 9.60,3.37 8.49,3.20 7.30,3.12 6.10,3.05 4.98,2.96 3.86,2.87 2.47,2.75 1.08,2.62 0.54,2.58 0,2.53 -0.30,2.50 -0.60,2.46 -0.89,2.35 -1.17,2.24 -1.43,2.07 -1.68,1.89 -1.88,1.67 -2.08,1.44 -2.23,1.17 -2.37,0.89 -2.44,0.60 -2.51,0.30 -2.51,-0.00 -2.51,-0.30 -2.44,-0.60 -2.37,-0.89 -2.23,-1.17 -2.08,-1.44 -1.88,-1.67 -1.68,-1.89 -1.43,-2.07 -1.17,-2.24 -0.89,-2.35 -0.60,-2.46 -0.30,-2.50 0.00,-2.53 0.00,-2.53 L 0,-2.53 Z"></path></g><g transform="translate(16.084031038195235 14.537259931143439) rotate(0 0.00004999999998744897 0.00005000000000165983)" stroke="none"><path fill="#000000" d="M 1.57,-1.57 Q 1.57,-1.57 1.77,-1.27 1.98,-0.98 2.09,-0.64 2.20,-0.29 2.19,0.05 2.18,0.41 2.05,0.75 1.93,1.09 1.70,1.37 1.48,1.65 1.18,1.84 0.87,2.04 0.52,2.12 0.18,2.21 -0.17,2.18 -0.53,2.15 -0.86,2.01 -1.19,1.87 -1.46,1.63 -1.73,1.39 -1.90,1.07 -2.08,0.76 -2.15,0.41 -2.21,0.05 -2.17,-0.29 -2.12,-0.65 -1.96,-0.97 -1.80,-1.29 -1.54,-1.54 -1.29,-1.80 -0.97,-1.96 -0.65,-2.12 -0.29,-2.17 0.06,-2.21 0.41,-2.15 0.76,-2.08 1.07,-1.90 1.39,-1.73 1.63,-1.46 1.87,-1.19 2.01,-0.86 2.15,-0.53 2.18,-0.17 2.21,0.18 2.12,0.52 2.03,0.87 1.84,1.18 1.65,1.48 1.37,1.70 1.09,1.93 0.75,2.05 0.41,2.18 0.05,2.19 -0.30,2.20 -0.64,2.09 -0.98,1.98 -1.27,1.77 -1.57,1.56 -1.57,1.57 -1.57,1.57 -1.73,1.35 -1.90,1.14 -2.01,0.90 -2.12,0.66 -2.16,0.39 -2.21,0.13 -2.20,-0.13 -2.18,-0.40 -2.10,-0.65 -2.02,-0.91 -1.88,-1.14 -1.74,-1.36 -1.55,-1.55 -1.36,-1.74 -1.14,-1.88 -0.91,-2.02 -0.65,-2.10 -0.40,-2.18 -0.13,-2.20 0.13,-2.21 0.39,-2.16 0.66,-2.12 0.90,-2.01 1.14,-1.90 1.35,-1.73 1.57,-1.57 1.57,-1.57 L 1.57,-1.57 Z"></path></g><g transform="translate(25.284066609460524 22.48275018237601) rotate(0 7.527311801314795 5.540935499651866)" stroke="none"><path fill="#000000" d="M -1.06,2.30 Q -1.06,2.30 -1.86,1.98 -2.66,1.66 -3.86,1.14 -5.06,0.63 -6.13,-0.06 -7.21,-0.75 -8.40,-1.98 -9.59,-3.20 -9.48,-2.80 -9.37,-2.40 -9.69,-2.62 -10.01,-2.85 -10.27,-3.14 -10.52,-3.44 -10.70,-3.78 -10.88,-4.13 -10.97,-4.51 -11.07,-4.89 -11.06,-5.28 -11.06,-5.67 -10.96,-6.05 -10.87,-6.43 -10.68,-6.77 -10.50,-7.12 -10.24,-7.41 -9.98,-7.70 -9.65,-7.92 -9.33,-8.14 -8.96,-8.28 -8.60,-8.41 -8.21,-8.46 -7.82,-8.50 -7.43,-8.45 -7.05,-8.40 -6.68,-8.26 -6.32,-8.12 -5.59,-7.31 -4.85,-6.50 -4.00,-5.76 -3.15,-5.02 -2.35,-3.95 -1.55,-2.88 -0.78,-1.64 -0.02,-0.41 0.57,0.64 1.17,1.71 0.29,0.82 -0.58,-0.06 -1.91,0.50 -3.23,1.08 -3.52,0.78 -3.81,0.48 -3.76,0.03 -3.70,-0.40 -3.54,-0.82 -3.38,-1.24 -3.13,-1.61 -2.87,-1.98 -2.54,-2.28 -2.20,-2.58 -1.80,-2.79 -1.41,-3.00 -0.97,-3.10 -0.53,-3.21 -0.08,-3.21 0.36,-3.21 0.79,-3.10 1.23,-3.00 1.63,-2.79 2.02,-2.58 2.36,-2.28 2.70,-1.98 2.95,-1.61 3.21,-1.24 3.37,-0.82 3.53,-0.40 3.58,0.03 3.63,0.48 3.42,2.27 3.21,4.06 2.83,5.15 2.46,6.23 2.52,4.94 2.59,3.65 3.26,4.63 3.93,5.61 4.84,6.32 5.75,7.02 6.46,7.82 7.18,8.61 8.35,9.17 9.52,9.73 10.69,10.42 11.86,11.11 12.63,12.43 13.41,13.76 13.56,14.81 13.72,15.87 12.33,14.47 10.95,13.07 9.61,13.02 8.26,12.97 9.56,12.31 10.87,11.64 11.84,11.09 12.81,10.54 13.64,9.53 14.46,8.51 15.57,7.58 16.69,6.64 18.08,5.82 19.47,4.99 19.76,4.62 20.04,4.25 20.41,3.95 20.77,3.66 21.20,3.46 21.62,3.26 22.08,3.17 22.54,3.07 23.01,3.09 23.48,3.12 23.93,3.25 24.38,3.38 24.79,3.62 25.20,3.85 25.53,4.18 25.87,4.51 26.12,4.90 26.37,5.30 26.52,5.75 26.67,6.19 26.70,6.66 26.74,7.13 26.66,7.60 26.58,8.06 26.40,8.49 26.21,8.92 25.93,9.30 25.64,9.67 24.27,9.93 22.89,10.19 22.36,11.37 21.83,12.55 20.65,13.40 19.47,14.25 18.16,14.85 16.85,15.46 16.47,15.64 16.09,15.82 15.67,16.02 15.25,16.23 14.79,16.32 14.33,16.42 13.86,16.40 13.39,16.38 12.94,16.25 12.49,16.12 12.08,15.89 11.68,15.66 11.34,15.33 11.00,15.01 10.75,14.61 10.50,14.22 10.35,13.77 10.20,13.33 10.16,12.86 10.12,12.39 10.19,11.93 10.27,11.47 10.45,11.04 10.63,10.61 10.91,10.23 11.19,9.85 11.55,9.56 11.92,9.26 11.09,10.37 10.26,11.48 10.53,10.91 10.79,10.34 11.23,9.89 11.66,9.43 12.22,9.14 12.78,8.85 13.40,8.75 14.02,8.65 14.64,8.76 15.26,8.86 15.82,9.16 16.37,9.45 16.80,9.91 17.23,10.37 17.49,10.94 17.76,11.52 17.82,12.14 17.89,12.77 17.75,13.38 17.61,14.00 17.28,14.53 16.96,15.07 16.48,15.48 15.99,15.88 15.41,16.11 14.82,16.34 14.20,16.37 13.57,16.40 12.96,16.23 12.36,16.06 11.84,15.71 11.32,15.35 10.94,14.85 10.56,14.35 10.36,13.75 10.16,13.15 10.17,12.52 10.17,11.89 10.37,11.30 10.58,10.70 10.96,10.20 11.34,9.71 11.86,9.35 12.39,9.00 12.99,8.84 13.60,8.67 14.23,8.71 14.86,8.75 15.44,8.98 16.02,9.22 16.50,9.63 16.98,10.04 17.30,10.58 17.62,11.12 17.76,11.73 17.89,12.35 16.99,14.08 16.09,15.82 15.67,16.02 15.25,16.23 14.79,16.32 14.33,16.42 13.86,16.40 13.39,16.38 12.94,16.25 12.49,16.12 12.08,15.89 11.68,15.66 11.34,15.33 11.00,15.01 10.75,14.61 10.50,14.22 10.35,13.77 10.20,13.33 10.16,12.86 10.12,12.40 10.19,11.93 10.27,11.47 10.45,11.04 10.63,10.61 10.91,10.23 11.19,9.85 11.55,9.56 11.92,9.26 13.55,8.53 15.19,7.80 16.50,6.86 17.81,5.92 18.79,5.10 19.77,4.27 21.25,3.96 22.73,3.65 21.39,3.95 20.04,4.25 20.41,3.95 20.77,3.66 21.20,3.46 21.62,3.26 22.08,3.17 22.54,3.07 23.01,3.09 23.48,3.11 23.93,3.25 24.38,3.38 24.79,3.62 25.20,3.85 25.53,4.18 25.87,4.51 26.12,4.90 26.37,5.30 26.52,5.75 26.66,6.19 26.70,6.66 26.74,7.13 26.66,7.59 26.58,8.06 26.40,8.49 26.21,8.92 25.93,9.30 25.64,9.67 25.49,9.75 25.34,9.83 24.48,10.48 23.62,11.14 22.53,11.96 21.43,12.78 20.55,13.42 19.67,14.06 18.62,15.34 17.57,16.62 16.63,17.23 15.68,17.83 14.60,18.42 13.52,19.01 12.45,19.54 11.38,20.08 10.16,19.95 8.93,19.83 7.49,17.89 6.04,15.95 7.04,16.80 8.04,17.64 7.00,17.12 5.95,16.60 4.53,15.92 3.11,15.24 2.20,14.44 1.28,13.64 0.53,12.72 -0.20,11.81 -1.33,10.79 -2.46,9.77 -3.16,8.74 -3.86,7.71 -4.21,6.60 -4.55,5.50 -4.34,4.20 -4.13,2.91 -3.97,1.69 -3.81,0.48 -3.76,0.03 -3.70,-0.40 -3.54,-0.82 -3.38,-1.24 -3.13,-1.61 -2.87,-1.98 -2.54,-2.28 -2.20,-2.58 -1.80,-2.79 -1.41,-3.00 -0.97,-3.10 -0.53,-3.21 -0.08,-3.21 0.36,-3.21 0.79,-3.10 1.23,-3.00 1.63,-2.79 2.02,-2.58 2.36,-2.28 2.70,-1.98 2.95,-1.61 3.21,-1.24 3.37,-0.82 3.53,-0.40 3.58,0.03 3.63,0.48 3.56,1.15 3.49,1.83 3.38,2.96 3.27,4.09 2.16,5.39 1.06,6.69 -0.85,6.78 -2.76,6.86 -3.78,5.65 -4.80,4.44 -5.52,3.60 -6.24,2.76 -6.82,1.46 -7.39,0.16 -6.58,1.10 -5.77,2.03 -6.98,0.76 -8.19,-0.51 -8.78,-1.46 -9.37,-2.40 -9.69,-2.62 -10.01,-2.85 -10.27,-3.14 -10.52,-3.44 -10.70,-3.78 -10.88,-4.13 -10.97,-4.51 -11.07,-4.89 -11.06,-5.28 -11.06,-5.67 -10.96,-6.05 -10.87,-6.43 -10.68,-6.77 -10.50,-7.12 -10.24,-7.41 -9.98,-7.70 -9.65,-7.92 -9.33,-8.14 -8.97,-8.28 -8.60,-8.41 -8.21,-8.46 -7.82,-8.50 -7.43,-8.45 -7.05,-8.40 -6.68,-8.26 -6.32,-8.12 -5.98,-7.98 -5.65,-7.84 -4.99,-6.70 -4.33,-5.57 -3.42,-4.99 -2.52,-4.41 -1.49,-3.76 -0.46,-3.10 0.30,-2.70 1.06,-2.30 1.32,-2.14 1.58,-1.98 1.80,-1.76 2.01,-1.54 2.17,-1.28 2.32,-1.02 2.41,-0.72 2.50,-0.43 2.51,-0.12 2.53,0.17 2.47,0.47 2.41,0.77 2.29,1.05 2.16,1.33 1.97,1.57 1.77,1.81 1.53,2.00 1.29,2.18 1.01,2.31 0.73,2.43 0.43,2.48 0.12,2.53 -0.17,2.51 -0.48,2.49 -0.77,2.40 -1.06,2.30 -1.06,2.30 L -1.06,2.30 Z"></path></g><g transform="translate(36.57502932629302 25.410034227778624) rotate(0 0.00004999999998744897 0.00005000000000165983)" stroke="none"><path fill="#000000" d="M 1.57,-1.57 Q 1.57,-1.57 1.77,-1.27 1.98,-0.98 2.09,-0.64 2.20,-0.29 2.19,0.05 2.18,0.41 2.05,0.75 1.93,1.09 1.70,1.37 1.48,1.65 1.18,1.84 0.87,2.04 0.52,2.12 0.18,2.21 -0.17,2.18 -0.53,2.15 -0.86,2.01 -1.19,1.87 -1.46,1.63 -1.73,1.39 -1.90,1.07 -2.08,0.76 -2.15,0.41 -2.21,0.05 -2.17,-0.29 -2.12,-0.65 -1.96,-0.97 -1.80,-1.29 -1.54,-1.54 -1.29,-1.80 -0.97,-1.96 -0.65,-2.12 -0.29,-2.17 0.06,-2.21 0.41,-2.15 0.76,-2.08 1.07,-1.90 1.39,-1.73 1.63,-1.46 1.87,-1.19 2.01,-0.86 2.15,-0.53 2.18,-0.17 2.21,0.18 2.12,0.52 2.03,0.87 1.84,1.18 1.65,1.48 1.37,1.70 1.09,1.93 0.75,2.05 0.41,2.18 0.05,2.19 -0.30,2.20 -0.64,2.09 -0.98,1.98 -1.27,1.77 -1.57,1.56 -1.57,1.57 -1.57,1.57 -1.73,1.35 -1.90,1.14 -2.01,0.90 -2.12,0.66 -2.16,0.39 -2.21,0.13 -2.20,-0.13 -2.18,-0.40 -2.10,-0.65 -2.02,-0.91 -1.88,-1.14 -1.74,-1.36 -1.55,-1.55 -1.36,-1.74 -1.14,-1.88 -0.91,-2.02 -0.65,-2.10 -0.40,-2.18 -0.13,-2.20 0.13,-2.21 0.39,-2.16 0.66,-2.12 0.90,-2.01 1.14,-1.90 1.35,-1.73 1.57,-1.57 1.57,-1.57 L 1.57,-1.57 Z"></path></g><g transform="translate(32.18409827304936 11.819062618129806) rotate(0 0.00004999999998744897 0.00005000000000165983)" stroke="none"><path fill="#000000" d="M 1.57,-1.57 Q 1.57,-1.57 1.77,-1.27 1.98,-0.98 2.09,-0.64 2.20,-0.29 2.19,0.05 2.18,0.41 2.05,0.75 1.93,1.09 1.70,1.37 1.48,1.65 1.18,1.84 0.87,2.04 0.52,2.12 0.18,2.21 -0.17,2.18 -0.53,2.15 -0.86,2.01 -1.19,1.87 -1.46,1.63 -1.73,1.39 -1.90,1.07 -2.08,0.76 -2.15,0.41 -2.21,0.05 -2.17,-0.29 -2.12,-0.65 -1.96,-0.97 -1.80,-1.29 -1.54,-1.54 -1.29,-1.80 -0.97,-1.96 -0.65,-2.12 -0.29,-2.17 0.06,-2.21 0.41,-2.15 0.76,-2.08 1.07,-1.90 1.39,-1.73 1.63,-1.46 1.87,-1.19 2.01,-0.86 2.15,-0.53 2.18,-0.17 2.21,0.18 2.12,0.52 2.03,0.87 1.84,1.18 1.65,1.48 1.37,1.70 1.09,1.93 0.75,2.05 0.41,2.18 0.05,2.19 -0.30,2.20 -0.64,2.09 -0.98,1.98 -1.27,1.77 -1.57,1.56 -1.57,1.57 -1.57,1.57 -1.73,1.35 -1.90,1.14 -2.01,0.90 -2.12,0.66 -2.16,0.39 -2.21,0.13 -2.20,-0.13 -2.18,-0.40 -2.10,-0.65 -2.02,-0.91 -1.88,-1.14 -1.74,-1.36 -1.55,-1.55 -1.36,-1.74 -1.14,-1.88 -0.91,-2.02 -0.65,-2.10 -0.40,-2.18 -0.13,-2.20 0.13,-2.21 0.39,-2.16 0.66,-2.12 0.90,-2.01 1.14,-1.90 1.35,-1.73 1.57,-1.57 1.57,-1.57 L 1.57,-1.57 Z"></path></g><g transform="translate(37.41139619640808 11.819062618129806) rotate(0 0.00004999999998744897 0.00005000000000165983)" stroke="none"><path fill="#000000" d="M 1.57,-1.57 Q 1.57,-1.57 1.77,-1.27 1.98,-0.98 2.09,-0.64 2.20,-0.29 2.19,0.05 2.18,0.41 2.05,0.75 1.93,1.09 1.70,1.37 1.48,1.65 1.18,1.84 0.87,2.04 0.52,2.12 0.18,2.21 -0.17,2.18 -0.53,2.15 -0.86,2.01 -1.19,1.87 -1.46,1.63 -1.73,1.39 -1.90,1.07 -2.08,0.76 -2.15,0.41 -2.21,0.05 -2.17,-0.29 -2.12,-0.65 -1.96,-0.97 -1.80,-1.29 -1.54,-1.54 -1.29,-1.80 -0.97,-1.96 -0.65,-2.12 -0.29,-2.17 0.06,-2.21 0.41,-2.15 0.76,-2.08 1.07,-1.90 1.39,-1.73 1.63,-1.46 1.87,-1.19 2.01,-0.86 2.15,-0.53 2.18,-0.17 2.21,0.18 2.12,0.52 2.03,0.87 1.84,1.18 1.65,1.48 1.37,1.70 1.09,1.93 0.75,2.05 0.41,2.18 0.05,2.19 -0.30,2.20 -0.64,2.09 -0.98,1.98 -1.27,1.77 -1.57,1.56 -1.57,1.57 -1.57,1.57 -1.73,1.35 -1.90,1.14 -2.01,0.90 -2.12,0.66 -2.16,0.39 -2.21,0.13 -2.20,-0.13 -2.18,-0.40 -2.10,-0.65 -2.02,-0.91 -1.88,-1.14 -1.74,-1.36 -1.55,-1.55 -1.36,-1.74 -1.14,-1.88 -0.91,-2.02 -0.65,-2.10 -0.40,-2.18 -0.13,-2.20 0.13,-2.21 0.39,-2.16 0.66,-2.12 0.90,-2.01 1.14,-1.90 1.35,-1.73 1.57,-1.57 1.57,-1.57 L 1.57,-1.57 Z"></path></g><g transform="translate(42.01142395232023 11.191787465543541) rotate(0 0.00004999999998744897 0.00005000000000165983)" stroke="none"><path fill="#000000" d="M 1.57,-1.57 Q 1.57,-1.57 1.77,-1.27 1.98,-0.98 2.09,-0.64 2.20,-0.29 2.19,0.05 2.18,0.41 2.05,0.75 1.93,1.09 1.70,1.37 1.48,1.65 1.18,1.84 0.87,2.04 0.52,2.12 0.18,2.21 -0.17,2.18 -0.53,2.15 -0.86,2.01 -1.19,1.87 -1.46,1.63 -1.73,1.39 -1.90,1.07 -2.08,0.76 -2.15,0.41 -2.21,0.05 -2.17,-0.29 -2.12,-0.65 -1.96,-0.97 -1.80,-1.29 -1.54,-1.54 -1.29,-1.80 -0.97,-1.96 -0.65,-2.12 -0.29,-2.17 0.06,-2.21 0.41,-2.15 0.76,-2.08 1.07,-1.90 1.39,-1.73 1.63,-1.46 1.87,-1.19 2.01,-0.86 2.15,-0.53 2.18,-0.17 2.21,0.18 2.12,0.52 2.03,0.87 1.84,1.18 1.65,1.48 1.37,1.70 1.09,1.93 0.75,2.05 0.41,2.18 0.05,2.19 -0.30,2.20 -0.64,2.09 -0.98,1.98 -1.27,1.77 -1.57,1.56 -1.57,1.57 -1.57,1.57 -1.73,1.35 -1.90,1.14 -2.01,0.90 -2.12,0.66 -2.16,0.39 -2.21,0.13 -2.20,-0.13 -2.18,-0.40 -2.10,-0.65 -2.02,-0.91 -1.88,-1.14 -1.74,-1.36 -1.55,-1.55 -1.36,-1.74 -1.14,-1.88 -0.91,-2.02 -0.65,-2.10 -0.40,-2.18 -0.13,-2.20 0.13,-2.21 0.39,-2.16 0.66,-2.12 0.90,-2.01 1.14,-1.90 1.35,-1.73 1.57,-1.57 1.57,-1.57 L 1.57,-1.57 Z"></path></g><g transform="translate(37.829589601745056 11.609968408031165) rotate(0 0.00004999999998744897 0.00005000000000165983)" stroke="none"><path fill="#000000" d="M 1.57,-1.57 Q 1.57,-1.57 1.77,-1.27 1.98,-0.98 2.09,-0.64 2.20,-0.29 2.19,0.05 2.18,0.41 2.05,0.75 1.93,1.09 1.70,1.37 1.48,1.65 1.18,1.84 0.87,2.04 0.52,2.12 0.18,2.21 -0.17,2.18 -0.53,2.15 -0.86,2.01 -1.19,1.87 -1.46,1.63 -1.73,1.39 -1.90,1.07 -2.08,0.76 -2.15,0.41 -2.21,0.05 -2.17,-0.29 -2.12,-0.65 -1.96,-0.97 -1.80,-1.29 -1.54,-1.54 -1.29,-1.80 -0.97,-1.96 -0.65,-2.12 -0.29,-2.17 0.06,-2.21 0.41,-2.15 0.76,-2.08 1.07,-1.90 1.39,-1.73 1.63,-1.46 1.87,-1.19 2.01,-0.86 2.15,-0.53 2.18,-0.17 2.21,0.18 2.12,0.52 2.03,0.87 1.84,1.18 1.65,1.48 1.37,1.70 1.09,1.93 0.75,2.05 0.41,2.18 0.05,2.19 -0.30,2.20 -0.64,2.09 -0.98,1.98 -1.27,1.77 -1.57,1.56 -1.57,1.57 -1.57,1.57 -1.73,1.35 -1.90,1.14 -2.01,0.90 -2.12,0.66 -2.16,0.39 -2.21,0.13 -2.20,-0.13 -2.18,-0.40 -2.10,-0.65 -2.02,-0.91 -1.88,-1.14 -1.74,-1.36 -1.55,-1.55 -1.36,-1.74 -1.14,-1.88 -0.91,-2.02 -0.65,-2.10 -0.40,-2.18 -0.13,-2.20 0.13,-2.21 0.39,-2.16 0.66,-2.12 0.90,-2.01 1.14,-1.90 1.35,-1.73 1.57,-1.57 1.57,-1.57 L 1.57,-1.57 Z"></path></g><g transform="translate(34.48410218072581 11.191787465543541) rotate(0 0.00004999999998744897 0.00005000000000165983)" stroke="none"><path fill="#000000" d="M 1.57,-1.57 Q 1.57,-1.57 1.77,-1.27 1.98,-0.98 2.09,-0.64 2.20,-0.29 2.19,0.05 2.18,0.41 2.05,0.75 1.93,1.09 1.70,1.37 1.48,1.65 1.18,1.84 0.87,2.04 0.52,2.12 0.18,2.21 -0.17,2.18 -0.53,2.15 -0.86,2.01 -1.19,1.87 -1.46,1.63 -1.73,1.39 -1.90,1.07 -2.08,0.76 -2.15,0.41 -2.21,0.05 -2.17,-0.29 -2.12,-0.65 -1.96,-0.97 -1.80,-1.29 -1.54,-1.54 -1.29,-1.80 -0.97,-1.96 -0.65,-2.12 -0.29,-2.17 0.06,-2.21 0.41,-2.15 0.76,-2.08 1.07,-1.90 1.39,-1.73 1.63,-1.46 1.87,-1.19 2.01,-0.86 2.15,-0.53 2.18,-0.17 2.21,0.18 2.12,0.52 2.03,0.87 1.84,1.18 1.65,1.48 1.37,1.70 1.09,1.93 0.75,2.05 0.41,2.18 0.05,2.19 -0.30,2.20 -0.64,2.09 -0.98,1.98 -1.27,1.77 -1.57,1.56 -1.57,1.57 -1.57,1.57 -1.73,1.35 -1.90,1.14 -2.01,0.90 -2.12,0.66 -2.16,0.39 -2.21,0.13 -2.20,-0.13 -2.18,-0.40 -2.10,-0.65 -2.02,-0.91 -1.88,-1.14 -1.74,-1.36 -1.55,-1.55 -1.36,-1.74 -1.14,-1.88 -0.91,-2.02 -0.65,-2.10 -0.40,-2.18 -0.13,-2.20 0.13,-2.21 0.39,-2.16 0.66,-2.12 0.90,-2.01 1.14,-1.90 1.35,-1.73 1.57,-1.57 1.57,-1.57 L 1.57,-1.57 Z"></path></g><g transform="translate(27.79314727924657 11.4008766905024) rotate(0 0.00004999999998744897 0.00005000000000165983)" stroke="none"><path fill="#000000" d="M 1.57,-1.57 Q 1.57,-1.57 1.77,-1.27 1.98,-0.98 2.09,-0.64 2.20,-0.29 2.19,0.05 2.18,0.41 2.05,0.75 1.93,1.09 1.70,1.37 1.48,1.65 1.18,1.84 0.87,2.04 0.52,2.12 0.18,2.21 -0.17,2.18 -0.53,2.15 -0.86,2.01 -1.19,1.87 -1.46,1.63 -1.73,1.39 -1.90,1.07 -2.08,0.76 -2.15,0.41 -2.21,0.05 -2.17,-0.29 -2.12,-0.65 -1.96,-0.97 -1.80,-1.29 -1.54,-1.54 -1.29,-1.80 -0.97,-1.96 -0.65,-2.12 -0.29,-2.17 0.06,-2.21 0.41,-2.15 0.76,-2.08 1.07,-1.90 1.39,-1.73 1.63,-1.46 1.87,-1.19 2.01,-0.86 2.15,-0.53 2.18,-0.17 2.21,0.18 2.12,0.52 2.03,0.87 1.84,1.18 1.65,1.48 1.37,1.70 1.09,1.93 0.75,2.05 0.41,2.18 0.05,2.19 -0.30,2.20 -0.64,2.09 -0.98,1.98 -1.27,1.77 -1.57,1.56 -1.57,1.57 -1.57,1.57 -1.73,1.35 -1.90,1.14 -2.01,0.90 -2.12,0.66 -2.16,0.39 -2.21,0.13 -2.20,-0.13 -2.18,-0.40 -2.10,-0.65 -2.02,-0.91 -1.88,-1.14 -1.74,-1.36 -1.55,-1.55 -1.36,-1.74 -1.14,-1.88 -0.91,-2.02 -0.65,-2.10 -0.40,-2.18 -0.13,-2.20 0.13,-2.21 0.39,-2.16 0.66,-2.12 0.90,-2.01 1.14,-1.90 1.35,-1.73 1.57,-1.57 1.57,-1.57 L 1.57,-1.57 Z"></path></g><g transform="translate(31.55682810560279 11.819062618129806) rotate(0 0.00004999999998744897 0.00005000000000165983)" stroke="none"><path fill="#000000" d="M 1.57,-1.57 Q 1.57,-1.57 1.77,-1.27 1.98,-0.98 2.09,-0.64 2.20,-0.29 2.19,0.05 2.18,0.41 2.05,0.75 1.93,1.09 1.70,1.37 1.48,1.65 1.18,1.84 0.87,2.04 0.52,2.12 0.18,2.21 -0.17,2.18 -0.53,2.15 -0.86,2.01 -1.19,1.87 -1.46,1.63 -1.73,1.39 -1.90,1.07 -2.08,0.76 -2.15,0.41 -2.21,0.05 -2.17,-0.29 -2.12,-0.65 -1.96,-0.97 -1.80,-1.29 -1.54,-1.54 -1.29,-1.80 -0.97,-1.96 -0.65,-2.12 -0.29,-2.17 0.06,-2.21 0.41,-2.15 0.76,-2.08 1.07,-1.90 1.39,-1.73 1.63,-1.46 1.87,-1.19 2.01,-0.86 2.15,-0.53 2.18,-0.17 2.21,0.18 2.12,0.52 2.03,0.87 1.84,1.18 1.65,1.48 1.37,1.70 1.09,1.93 0.75,2.05 0.41,2.18 0.05,2.19 -0.30,2.20 -0.64,2.09 -0.98,1.98 -1.27,1.77 -1.57,1.56 -1.57,1.57 -1.57,1.57 -1.73,1.35 -1.90,1.14 -2.01,0.90 -2.12,0.66 -2.16,0.39 -2.21,0.13 -2.20,-0.13 -2.18,-0.40 -2.10,-0.65 -2.02,-0.91 -1.88,-1.14 -1.74,-1.36 -1.55,-1.55 -1.36,-1.74 -1.14,-1.88 -0.91,-2.02 -0.65,-2.10 -0.40,-2.18 -0.13,-2.20 0.13,-2.21 0.39,-2.16 0.66,-2.12 0.90,-2.01 1.14,-1.90 1.35,-1.73 1.57,-1.57 1.57,-1.57 L 1.57,-1.57 Z"></path></g><g transform="translate(35.320469050840984 12.02815433565857) rotate(0 0.00004999999998744897 0.00005000000000165983)" stroke="none"><path fill="#000000" d="M 1.57,-1.57 Q 1.57,-1.57 1.77,-1.27 1.98,-0.98 2.09,-0.64 2.20,-0.29 2.19,0.05 2.18,0.41 2.05,0.75 1.93,1.09 1.70,1.37 1.48,1.65 1.18,1.84 0.87,2.04 0.52,2.12 0.18,2.21 -0.17,2.18 -0.53,2.15 -0.86,2.01 -1.19,1.87 -1.46,1.63 -1.73,1.39 -1.90,1.07 -2.08,0.76 -2.15,0.41 -2.21,0.05 -2.17,-0.29 -2.12,-0.65 -1.96,-0.97 -1.80,-1.29 -1.54,-1.54 -1.29,-1.80 -0.97,-1.96 -0.65,-2.12 -0.29,-2.17 0.06,-2.21 0.41,-2.15 0.76,-2.08 1.07,-1.90 1.39,-1.73 1.63,-1.46 1.87,-1.19 2.01,-0.86 2.15,-0.53 2.18,-0.17 2.21,0.18 2.12,0.52 2.03,0.87 1.84,1.18 1.65,1.48 1.37,1.70 1.09,1.93 0.75,2.05 0.41,2.18 0.05,2.19 -0.30,2.20 -0.64,2.09 -0.98,1.98 -1.27,1.77 -1.57,1.56 -1.57,1.57 -1.57,1.57 -1.73,1.35 -1.90,1.14 -2.01,0.90 -2.12,0.66 -2.16,0.39 -2.21,0.13 -2.20,-0.13 -2.18,-0.40 -2.10,-0.65 -2.02,-0.91 -1.88,-1.14 -1.74,-1.36 -1.55,-1.55 -1.36,-1.74 -1.14,-1.88 -0.91,-2.02 -0.65,-2.10 -0.40,-2.18 -0.13,-2.20 0.13,-2.21 0.39,-2.16 0.66,-2.12 0.90,-2.01 1.14,-1.90 1.35,-1.73 1.57,-1.57 1.57,-1.57 L 1.57,-1.57 Z"></path></g><g transform="translate(39.920496806753135 11.191787465543541) rotate(0 0.00004999999998744897 0.00005000000000165983)" stroke="none"><path fill="#000000" d="M 1.57,-1.57 Q 1.57,-1.57 1.77,-1.27 1.98,-0.98 2.09,-0.64 2.20,-0.29 2.19,0.05 2.18,0.41 2.05,0.75 1.93,1.09 1.70,1.37 1.48,1.65 1.18,1.84 0.87,2.04 0.52,2.12 0.18,2.21 -0.17,2.18 -0.53,2.15 -0.86,2.01 -1.19,1.87 -1.46,1.63 -1.73,1.39 -1.90,1.07 -2.08,0.76 -2.15,0.41 -2.21,0.05 -2.17,-0.29 -2.12,-0.65 -1.96,-0.97 -1.80,-1.29 -1.54,-1.54 -1.29,-1.80 -0.97,-1.96 -0.65,-2.12 -0.29,-2.17 0.06,-2.21 0.41,-2.15 0.76,-2.08 1.07,-1.90 1.39,-1.73 1.63,-1.46 1.87,-1.19 2.01,-0.86 2.15,-0.53 2.18,-0.17 2.21,0.18 2.12,0.52 2.03,0.87 1.84,1.18 1.65,1.48 1.37,1.70 1.09,1.93 0.75,2.05 0.41,2.18 0.05,2.19 -0.30,2.20 -0.64,2.09 -0.98,1.98 -1.27,1.77 -1.57,1.56 -1.57,1.57 -1.57,1.57 -1.73,1.35 -1.90,1.14 -2.01,0.90 -2.12,0.66 -2.16,0.39 -2.21,0.13 -2.20,-0.13 -2.18,-0.40 -2.10,-0.65 -2.02,-0.91 -1.88,-1.14 -1.74,-1.36 -1.55,-1.55 -1.36,-1.74 -1.14,-1.88 -0.91,-2.02 -0.65,-2.10 -0.40,-2.18 -0.13,-2.20 0.13,-2.21 0.39,-2.16 0.66,-2.12 0.90,-2.01 1.14,-1.90 1.35,-1.73 1.57,-1.57 1.57,-1.57 L 1.57,-1.57 Z"></path></g><g transform="translate(43.68415769255034 11.819062618129806) rotate(0 0.00004999999998744897 0.00005000000000165983)" stroke="none"><path fill="#000000" d="M 1.57,-1.57 Q 1.57,-1.57 1.77,-1.27 1.98,-0.98 2.09,-0.64 2.20,-0.29 2.19,0.05 2.18,0.41 2.05,0.75 1.93,1.09 1.70,1.37 1.48,1.65 1.18,1.84 0.87,2.04 0.52,2.12 0.18,2.21 -0.17,2.18 -0.53,2.15 -0.86,2.01 -1.19,1.87 -1.46,1.63 -1.73,1.39 -1.90,1.07 -2.08,0.76 -2.15,0.41 -2.21,0.05 -2.17,-0.29 -2.12,-0.65 -1.96,-0.97 -1.80,-1.29 -1.54,-1.54 -1.29,-1.80 -0.97,-1.96 -0.65,-2.12 -0.29,-2.17 0.06,-2.21 0.41,-2.15 0.76,-2.08 1.07,-1.90 1.39,-1.73 1.63,-1.46 1.87,-1.19 2.01,-0.86 2.15,-0.53 2.18,-0.17 2.21,0.18 2.12,0.52 2.03,0.87 1.84,1.18 1.65,1.48 1.37,1.70 1.09,1.93 0.75,2.05 0.41,2.18 0.05,2.19 -0.30,2.20 -0.64,2.09 -0.98,1.98 -1.27,1.77 -1.57,1.56 -1.57,1.57 -1.57,1.57 -1.73,1.35 -1.90,1.14 -2.01,0.90 -2.12,0.66 -2.16,0.39 -2.21,0.13 -2.20,-0.13 -2.18,-0.40 -2.10,-0.65 -2.02,-0.91 -1.88,-1.14 -1.74,-1.36 -1.55,-1.55 -1.36,-1.74 -1.14,-1.88 -0.91,-2.02 -0.65,-2.10 -0.40,-2.18 -0.13,-2.20 0.13,-2.21 0.39,-2.16 0.66,-2.12 0.90,-2.01 1.14,-1.90 1.35,-1.73 1.57,-1.57 1.57,-1.57 L 1.57,-1.57 Z"></path></g><g transform="translate(51.21145952358563 12.02815433565857) rotate(0 0.00004999999998744897 0.00005000000000165983)" stroke="none"><path fill="#000000" d="M 1.57,-1.57 Q 1.57,-1.57 1.77,-1.27 1.98,-0.98 2.09,-0.64 2.20,-0.29 2.19,0.05 2.18,0.41 2.05,0.75 1.93,1.09 1.70,1.37 1.48,1.65 1.18,1.84 0.87,2.04 0.52,2.12 0.18,2.21 -0.17,2.18 -0.53,2.15 -0.86,2.01 -1.19,1.87 -1.46,1.63 -1.73,1.39 -1.90,1.07 -2.08,0.76 -2.15,0.41 -2.21,0.05 -2.17,-0.29 -2.12,-0.65 -1.96,-0.97 -1.80,-1.29 -1.54,-1.54 -1.29,-1.80 -0.97,-1.96 -0.65,-2.12 -0.29,-2.17 0.06,-2.21 0.41,-2.15 0.76,-2.08 1.07,-1.90 1.39,-1.73 1.63,-1.46 1.87,-1.19 2.01,-0.86 2.15,-0.53 2.18,-0.17 2.21,0.18 2.12,0.52 2.03,0.87 1.84,1.18 1.65,1.48 1.37,1.70 1.09,1.93 0.75,2.05 0.41,2.18 0.05,2.19 -0.30,2.20 -0.64,2.09 -0.98,1.98 -1.27,1.77 -1.57,1.56 -1.57,1.57 -1.57,1.57 -1.73,1.35 -1.90,1.14 -2.01,0.90 -2.12,0.66 -2.16,0.39 -2.21,0.13 -2.20,-0.13 -2.18,-0.40 -2.10,-0.65 -2.02,-0.91 -1.88,-1.14 -1.74,-1.36 -1.55,-1.55 -1.36,-1.74 -1.14,-1.88 -0.91,-2.02 -0.65,-2.10 -0.40,-2.18 -0.13,-2.20 0.13,-2.21 0.39,-2.16 0.66,-2.12 0.90,-2.01 1.14,-1.90 1.35,-1.73 1.57,-1.57 1.57,-1.57 L 1.57,-1.57 Z"></path></g><g transform="translate(56.43875744694435 12.02815433565857) rotate(0 0.20909670266854619 0)" stroke="none"><path fill="#000000" d="M 2.12,-0.66 Q 2.12,-0.66 2.15,-0.13 2.18,0.40 1.96,0.88 1.74,1.36 1.32,1.69 0.91,2.02 0.38,2.12 -0.13,2.21 -0.64,2.05 -1.14,1.90 -1.52,1.52 -1.90,1.14 -2.05,0.64 -2.21,0.13 -2.12,-0.38 -2.02,-0.91 -1.69,-1.32 -1.36,-1.74 -0.88,-1.96 -0.39,-2.18 0.13,-2.15 0.66,-2.11 1.11,-1.84 1.57,-1.56 1.84,-1.11 L 2.12,-0.66 Z"></path></g><g transform="translate(61.66605537030307 11.191787465543541) rotate(0 0.00004999999998744897 0.00005000000000165983)" stroke="none"><path fill="#000000" d="M 1.57,-1.57 Q 1.57,-1.57 1.77,-1.27 1.98,-0.98 2.09,-0.64 2.20,-0.29 2.19,0.05 2.18,0.41 2.05,0.75 1.93,1.09 1.70,1.37 1.48,1.65 1.18,1.84 0.87,2.04 0.52,2.12 0.18,2.21 -0.17,2.18 -0.53,2.15 -0.86,2.01 -1.19,1.87 -1.46,1.63 -1.73,1.39 -1.90,1.07 -2.08,0.76 -2.15,0.41 -2.21,0.05 -2.17,-0.29 -2.12,-0.65 -1.96,-0.97 -1.80,-1.29 -1.54,-1.54 -1.29,-1.80 -0.97,-1.96 -0.65,-2.12 -0.29,-2.17 0.06,-2.21 0.41,-2.15 0.76,-2.08 1.07,-1.90 1.39,-1.73 1.63,-1.46 1.87,-1.19 2.01,-0.86 2.15,-0.53 2.18,-0.17 2.21,0.18 2.12,0.52 2.03,0.87 1.84,1.18 1.65,1.48 1.37,1.70 1.09,1.93 0.75,2.05 0.41,2.18 0.05,2.19 -0.30,2.20 -0.64,2.09 -0.98,1.98 -1.27,1.77 -1.57,1.56 -1.57,1.57 -1.57,1.57 -1.73,1.35 -1.90,1.14 -2.01,0.90 -2.12,0.66 -2.16,0.39 -2.21,0.13 -2.20,-0.13 -2.18,-0.40 -2.10,-0.65 -2.02,-0.91 -1.88,-1.14 -1.74,-1.36 -1.55,-1.55 -1.36,-1.74 -1.14,-1.88 -0.91,-2.02 -0.65,-2.10 -0.40,-2.18 -0.13,-2.20 0.13,-2.21 0.39,-2.16 0.66,-2.12 0.90,-2.01 1.14,-1.90 1.35,-1.73 1.57,-1.57 1.57,-1.57 L 1.57,-1.57 Z"></path></g><g transform="translate(62.920615645755106 11.191787465543541) rotate(0 0.2090867323890393 0)" stroke="none"><path fill="#000000" d="M 2.12,-0.66 Q 2.12,-0.66 2.15,-0.13 2.18,0.40 1.96,0.88 1.74,1.36 1.32,1.69 0.91,2.02 0.38,2.12 -0.13,2.21 -0.64,2.05 -1.14,1.90 -1.52,1.52 -1.90,1.14 -2.05,0.64 -2.21,0.13 -2.12,-0.38 -2.02,-0.91 -1.69,-1.32 -1.36,-1.74 -0.88,-1.96 -0.39,-2.18 0.13,-2.15 0.66,-2.11 1.11,-1.84 1.57,-1.56 1.84,-1.11 L 2.12,-0.66 Z"></path></g><g transform="translate(65.63881295876877 11.191787465543541) rotate(0 0.00004999999998744897 0.00005000000000165983)" stroke="none"><path fill="#000000" d="M 1.57,-1.57 Q 1.57,-1.57 1.77,-1.27 1.98,-0.98 2.09,-0.64 2.20,-0.29 2.19,0.05 2.18,0.41 2.05,0.75 1.93,1.09 1.70,1.37 1.48,1.65 1.18,1.84 0.87,2.04 0.52,2.12 0.18,2.21 -0.17,2.18 -0.53,2.15 -0.86,2.01 -1.19,1.87 -1.46,1.63 -1.73,1.39 -1.90,1.07 -2.08,0.76 -2.15,0.41 -2.21,0.05 -2.17,-0.29 -2.12,-0.65 -1.96,-0.97 -1.80,-1.29 -1.54,-1.54 -1.29,-1.80 -0.97,-1.96 -0.65,-2.12 -0.29,-2.17 0.06,-2.21 0.41,-2.15 0.76,-2.08 1.07,-1.90 1.39,-1.73 1.63,-1.46 1.87,-1.19 2.01,-0.86 2.15,-0.53 2.18,-0.17 2.21,0.18 2.12,0.52 2.03,0.87 1.84,1.18 1.65,1.48 1.37,1.70 1.09,1.93 0.75,2.05 0.41,2.18 0.05,2.19 -0.30,2.20 -0.64,2.09 -0.98,1.98 -1.27,1.77 -1.57,1.56 -1.57,1.57 -1.57,1.57 -1.73,1.35 -1.90,1.14 -2.01,0.90 -2.12,0.66 -2.16,0.39 -2.21,0.13 -2.20,-0.13 -2.18,-0.40 -2.10,-0.65 -2.02,-0.91 -1.88,-1.14 -1.74,-1.36 -1.55,-1.55 -1.36,-1.74 -1.14,-1.88 -0.91,-2.02 -0.65,-2.10 -0.40,-2.18 -0.13,-2.20 0.13,-2.21 0.39,-2.16 0.66,-2.12 0.90,-2.01 1.14,-1.90 1.35,-1.73 1.57,-1.57 1.57,-1.57 L 1.57,-1.57 Z"></path></g></svg>